<?xml version="1.0" standalone="no"?>
<!DOCTYPE svg PUBLIC "-//W3C//DTD SVG 20010904//EN"
 "http://www.w3.org/TR/2001/REC-SVG-20010904/DTD/svg10.dtd">
<svg version="1.0" xmlns="http://www.w3.org/2000/svg"
 width="1020.000000pt" height="300.000000pt" viewBox="0 0 1020.000000 300.000000"
 preserveAspectRatio="xMidYMid meet">
<metadata>
Created by potrace 1.16, written by Peter Selinger 2001-2019
</metadata>
<g transform="translate(0.000000,300.000000) scale(0.100000,-0.100000)"
fill="#000000" stroke="none">
<path d="M315 2747 c-72 -34 -118 -106 -118 -187 0 -168 182 -267 317 -172
114 79 116 245 3 336 -33 26 -48 31 -105 33 -42 2 -78 -2 -97 -10z"/>
<path d="M2295 2714 c-44 -8 -97 -19 -117 -25 l-38 -10 0 -637 c0 -714 1 -719
69 -857 88 -178 239 -301 427 -349 77 -20 229 -20 310 -1 70 16 168 57 179 74
4 7 -13 33 -42 64 -57 61 -100 121 -137 195 -14 28 -27 52 -29 52 -1 0 -18 -5
-37 -10 -139 -42 -282 25 -344 159 -19 42 -21 69 -24 299 l-4 252 141 0 140 0
10 38 c13 50 28 159 37 260 l7 82 -167 0 -166 0 0 215 0 215 -67 -1 c-38 0
-104 -7 -148 -15z"/>
<path d="M4740 2724 c-62 -10 -148 -26 -182 -35 l-38 -10 0 -929 0 -930 190 0
190 0 0 955 0 955 -67 -1 c-38 -1 -79 -3 -93 -5z"/>
<path d="M5195 2714 c-44 -7 -98 -19 -120 -26 l-40 -13 0 -610 c0 -692 -2
-670 83 -845 39 -81 59 -108 138 -187 79 -78 106 -98 186 -136 121 -58 202
-77 329 -77 128 0 206 18 329 77 80 39 108 59 181 132 134 135 200 269 222
456 8 74 7 108 -7 189 -29 173 -88 288 -211 411 -92 92 -160 135 -282 178 -82
29 -97 31 -228 32 -148 0 -197 -10 -312 -61 l-53 -23 0 260 0 259 -67 -1 c-38
-1 -104 -7 -148 -15z m728 -828 c73 -35 138 -101 174 -174 25 -50 28 -68 28
-152 0 -82 -4 -103 -26 -150 -37 -77 -87 -131 -156 -168 -209 -111 -452 -6
-518 223 -41 141 20 306 147 396 92 66 246 77 351 25z"/>
<path d="M413 2290 c-28 -4 -85 -15 -127 -24 l-76 -17 0 -715 0 -714 190 0
190 0 0 740 0 740 -62 -1 c-35 -1 -86 -5 -115 -9z"/>
<path d="M1245 2290 c-133 -28 -240 -86 -334 -181 -114 -114 -174 -241 -191
-402 -5 -51 -10 -271 -10 -489 l0 -398 190 0 190 0 0 429 c0 500 0 502 85 587
147 148 395 90 458 -107 15 -44 17 -109 17 -480 l0 -429 190 0 190 0 0 393 c0
215 -5 433 -10 482 -17 172 -75 299 -191 414 -125 125 -254 181 -434 187 -60
2 -128 -1 -150 -6z"/>
<path d="M3555 2285 c-151 -34 -252 -90 -366 -204 -94 -95 -149 -187 -190
-321 -30 -96 -33 -289 -5 -388 74 -271 282 -474 548 -537 84 -20 245 -19 327
1 193 48 369 180 470 352 37 64 87 190 78 198 -19 19 -279 84 -336 84 -15 0
-27 -15 -47 -60 -29 -66 -105 -145 -170 -178 -81 -42 -218 -47 -284 -12 -24
13 -60 -17 489 408 166 128 301 238 301 245 0 19 -64 122 -110 177 -90 107
-257 204 -402 234 -92 19 -220 19 -303 1z m272 -386 l32 -14 -131 -100 c-71
-55 -183 -142 -248 -192 -65 -51 -121 -93 -124 -93 -3 0 -6 30 -6 68 1 151 96
282 243 334 61 22 183 20 234 -3z"/>
<path d="M7160 2294 c-130 -25 -264 -96 -354 -189 -72 -73 -118 -146 -154
-247 l-27 -73 -3 -482 -3 -483 185 0 185 0 3 448 c3 439 3 448 25 488 33 61
70 101 122 132 39 23 57 27 121 27 41 0 89 -4 106 -9 30 -8 32 -7 64 55 39 75
94 150 144 198 20 19 36 38 36 43 0 11 -65 42 -140 68 -64 21 -248 36 -310 24z"/>
<path d="M8025 2285 c-142 -32 -255 -95 -361 -200 -159 -157 -237 -378 -213
-607 18 -178 83 -313 214 -443 76 -77 105 -98 185 -137 136 -66 213 -82 363
-75 126 6 202 23 285 66 l42 21 0 -45 0 -45 191 0 191 0 -4 428 c-4 397 -6
432 -25 503 -39 141 -116 266 -226 365 -73 66 -150 110 -254 147 -75 26 -105
30 -208 33 -78 2 -141 -2 -180 -11z m308 -399 c71 -34 139 -103 175 -175 24
-49 27 -68 27 -151 0 -82 -4 -103 -26 -150 -37 -77 -87 -131 -156 -168 -188
-100 -405 -28 -496 166 -28 59 -32 77 -32 152 0 71 4 94 26 141 28 59 82 126
131 160 92 66 246 77 351 25z"/>
<path d="M9365 2286 c-226 -55 -375 -281 -337 -509 16 -95 62 -186 125 -250
106 -106 204 -137 445 -137 148 0 154 -1 177 -24 50 -50 44 -114 -14 -153 -34
-23 -38 -23 -341 -23 -284 0 -308 -1 -315 -17 -16 -43 -36 -166 -42 -256 l-6
-98 400 3 399 3 76 38 c362 179 323 719 -60 837 -52 16 -93 20 -222 20 -87 0
-170 4 -183 9 -71 27 -90 109 -38 162 l29 29 285 0 285 0 16 68 c17 77 36 219
36 274 l0 38 -332 -1 c-226 0 -349 -5 -383 -13z"/>
</g>
</svg>
